<svg xmlns="http://www.w3.org/2000/svg" viewBox="0 0 1920 1080"><defs><style>.cls-1{fill:#0d0d1c;}.cls-2{fill:#101022;}.cls-2,.cls-3,.cls-4{fill-rule:evenodd;}.cls-3{fill:#fff;}.cls-4{fill:#01b89c;}</style></defs><g id="Layer_2" data-name="Layer 2"><g id="Layer_1-2" data-name="Layer 1"><rect class="cls-1" width="1920" height="1080"/><path class="cls-2" d="M917.45.9s350,216.42,571.66,108.21c161-78.57,332.43-38.63,430.89,54.85v68.48s-154-245.61-545.89-46.66S1098.17.9,593.64.9Z"/><path class="cls-2" d="M0,320.9S215.78,990.78,829.12,794.11s841.67-216.66,925-95c36,52.56,100.29,73.06,165.88,64.51v47.16s-135.88,5-264.21-111.67-670,85-670,85-451.68,203.34-706.68,15C198.4,739.5,98.65,701.78,0,678Z"/><path class="cls-2" d="M480,.9s249.12,509.88,915.78,393.21c208.71-36.52,383.1,7.33,524.22,84.79V394.11s-220.88-126.66-467.54-83.33-448.34-13.45-643.34-111.67C672.23,130.17,624,65.21,593.64.9Z"/><path class="cls-3" d="M196.74,59.18h0a14.8,14.8,0,0,0,14.75,14.75h0a14.8,14.8,0,0,0-14.75,14.75h0A14.8,14.8,0,0,0,182,73.93h0A14.8,14.8,0,0,0,196.74,59.18Z"/><path class="cls-3" d="M1718.88,158.8h0a14.8,14.8,0,0,0,14.75,14.75h0a14.79,14.79,0,0,0-14.75,14.74h0a14.79,14.79,0,0,0-14.74-14.74h0A14.79,14.79,0,0,0,1718.88,158.8Z"/><path class="cls-3" d="M132.22,101.88h0a7.39,7.39,0,0,0,7.37,7.38h0a7.39,7.39,0,0,0-7.37,7.37h0a7.4,7.4,0,0,0-7.38-7.37h0A7.4,7.4,0,0,0,132.22,101.88Z"/><path class="cls-3" d="M1768,209.18h0a7.39,7.39,0,0,0,7.37,7.37h0a7.4,7.4,0,0,0-7.37,7.38h0a7.4,7.4,0,0,0-7.37-7.38h0A7.39,7.39,0,0,0,1768,209.18Z"/><path class="cls-3" d="M1685.39,239.9h0a7.4,7.4,0,0,0,7.37,7.38h0a7.39,7.39,0,0,0-7.37,7.37h0a7.39,7.39,0,0,0-7.37-7.37h0A7.4,7.4,0,0,0,1685.39,239.9Z"/><path class="cls-4" d="M148.5,547.52h0a7.39,7.39,0,0,0,7.37,7.37h0a7.4,7.4,0,0,0-7.37,7.38h0a7.4,7.4,0,0,0-7.37-7.38h0A7.39,7.39,0,0,0,148.5,547.52Z"/><path class="cls-3" d="M46,63.66h0A7.39,7.39,0,0,0,53.41,71h0A7.39,7.39,0,0,0,46,78.4h0A7.4,7.4,0,0,0,38.66,71h0A7.4,7.4,0,0,0,46,63.66Z"/><path class="cls-4" d="M157.41,604.66h0a14.79,14.79,0,0,0,14.74,14.75h0a14.79,14.79,0,0,0-14.74,14.75h0a14.8,14.8,0,0,0-14.75-14.75h0A14.8,14.8,0,0,0,157.41,604.66Z"/><path class="cls-4" d="M114.4,592.37h0a7.39,7.39,0,0,0,7.37,7.38h0a7.39,7.39,0,0,0-7.37,7.37h0a7.4,7.4,0,0,0-7.38-7.37h0A7.4,7.4,0,0,0,114.4,592.37Z"/><path class="cls-4" d="M1742.54,859.7h0a7.4,7.4,0,0,0,7.37,7.37h0a7.4,7.4,0,0,0-7.37,7.37h0a7.4,7.4,0,0,0-7.38-7.37h0A7.4,7.4,0,0,0,1742.54,859.7Z"/><path class="cls-4" d="M1751.45,916.84h0a14.78,14.78,0,0,0,14.74,14.74h0a14.79,14.79,0,0,0-14.74,14.75h0a14.8,14.8,0,0,0-14.75-14.75h0A14.79,14.79,0,0,0,1751.45,916.84Z"/><path class="cls-4" d="M1708.44,904.55h0a7.39,7.39,0,0,0,7.37,7.37h0a7.39,7.39,0,0,0-7.37,7.38h0a7.4,7.4,0,0,0-7.38-7.38h0A7.4,7.4,0,0,0,1708.44,904.55Z"/><path class="cls-3" d="M330.75,239.9h0a14.8,14.8,0,0,0,14.75,14.75h0a14.8,14.8,0,0,0-14.75,14.75h0A14.79,14.79,0,0,0,316,254.65h0A14.79,14.79,0,0,0,330.75,239.9Z"/><path class="cls-3" d="M264.7,270h0a7.4,7.4,0,0,0,7.37,7.37h0a7.4,7.4,0,0,0-7.37,7.38h0a7.4,7.4,0,0,0-7.37-7.38h0A7.4,7.4,0,0,0,264.7,270Z"/><path class="cls-3" d="M304.64,305.65h0A7.4,7.4,0,0,0,312,313h0a7.4,7.4,0,0,0-7.37,7.37h0a7.4,7.4,0,0,0-7.37-7.37h0A7.4,7.4,0,0,0,304.64,305.65Z"/><path class="cls-3" d="M1581.29,533.86h0a7.4,7.4,0,0,0,7.38,7.38h0a7.4,7.4,0,0,0-7.38,7.37h0a7.4,7.4,0,0,0-7.37-7.37h0A7.4,7.4,0,0,0,1581.29,533.86Z"/><path class="cls-3" d="M1611.8,476.47h0a14.8,14.8,0,0,0,14.75,14.75h0A14.8,14.8,0,0,0,1611.8,506h0a14.79,14.79,0,0,0-14.74-14.75h0A14.79,14.79,0,0,0,1611.8,476.47Z"/><path class="cls-3" d="M139.82,894.41h0a14.8,14.8,0,0,0,14.75,14.75h0a14.8,14.8,0,0,0-14.75,14.75h0a14.8,14.8,0,0,0-14.75-14.75h0A14.8,14.8,0,0,0,139.82,894.41Z"/><path class="cls-3" d="M198.19,934.35h0a7.4,7.4,0,0,0,7.37,7.37h0a7.4,7.4,0,0,0-7.37,7.38h0a7.4,7.4,0,0,0-7.37-7.38h0A7.4,7.4,0,0,0,198.19,934.35Z"/><path class="cls-3" d="M144.43,997h0a7.39,7.39,0,0,0,7.37,7.37h0a7.39,7.39,0,0,0-7.37,7.37h0a7.39,7.39,0,0,0-7.37-7.37h0A7.39,7.39,0,0,0,144.43,997Z"/><path class="cls-3" d="M1538.07,463.88h0a7.4,7.4,0,0,0,7.37,7.37h0a7.4,7.4,0,0,0-7.37,7.37h0a7.4,7.4,0,0,0-7.37-7.37h0A7.4,7.4,0,0,0,1538.07,463.88Z"/><path class="cls-3" d="M1363.41,903h0a14.79,14.79,0,0,0,14.74,14.75h0a14.79,14.79,0,0,0-14.74,14.75h0a14.8,14.8,0,0,0-14.75-14.75h0A14.8,14.8,0,0,0,1363.41,903Z"/><path class="cls-3" d="M1446.35,908.54h0a7.4,7.4,0,0,0,7.38,7.38h0a7.4,7.4,0,0,0-7.38,7.37h0a7.4,7.4,0,0,0-7.37-7.37h0A7.4,7.4,0,0,0,1446.35,908.54Z"/><path class="cls-3" d="M1398.43,965.69h0a7.4,7.4,0,0,0,7.37,7.37h0a7.4,7.4,0,0,0-7.37,7.37h0a7.4,7.4,0,0,0-7.38-7.37h0A7.4,7.4,0,0,0,1398.43,965.69Z"/><path class="cls-3" d="M170.78,34h0a7.39,7.39,0,0,0,7.37,7.37h0a7.39,7.39,0,0,0-7.37,7.37h0a7.39,7.39,0,0,0-7.37-7.37h0A7.39,7.39,0,0,0,170.78,34Z"/><path class="cls-3" d="M1619.18,195.53h0a7.39,7.39,0,0,0,7.37,7.37h0a7.39,7.39,0,0,0-7.37,7.38h0a7.4,7.4,0,0,0-7.38-7.38h0A7.4,7.4,0,0,0,1619.18,195.53Z"/></g></g></svg>