<svg cache-id="749ae7e491e5455c8fea30c283e44b0f" id="ed8lGSwrqUs1" xmlns="http://www.w3.org/2000/svg" xmlns:xlink="http://www.w3.org/1999/xlink" viewBox="0 0 90 135.28" shape-rendering="geometricPrecision" text-rendering="geometricPrecision"><defs><linearGradient id="ed8lGSwrqUs9-fill" x1="0" y1="0.5" x2="1" y2="0.5" spreadMethod="pad" gradientUnits="objectBoundingBox" gradientTransform="translate(0 0)"><stop id="ed8lGSwrqUs9-fill-0" offset="0%" stop-color="#fff"/><stop id="ed8lGSwrqUs9-fill-1" offset="100%" stop-color="#1ebfff"/></linearGradient></defs><g><g><path d="M86.18,21.07c0,0,11.17,49.54-4.68,65.75l-1.27,25c0,0-5.58,9.37-9.72,13.15-3.294493,3.209235-6.36503,6.640618-9.19,10.27h-32.64c-2.826048-3.619066-5.896561-7.040399-9.19-10.24-4.14-3.78-9.72-13.15-9.72-13.15l-1.27-25C-7.35,70.61,3.82,21.07,3.82,21.07C16.88,0.54,45,0,45,0s28.12.54,41.18,21.07Z" fill="#d62725" fill-rule="evenodd"/><path d="M5.63,22.83c0,0,2.77,31.56-4.83,45.05c1,7.22,3.13,13.73,7,18.14c8.820252,6.283553,13.127559,17.16146,11,27.78l6.66,5l4.82-7.25c-2.407351-7.084809-6.40245-13.525537-11.68-18.83C9.68,83.63,6.8,69.85,6.8,69.85L7,57.78c0,0,3.67-8.78-1.37-34.95Z" fill="#eb8c3e" fill-rule="evenodd"/><path d="M17.61,123.05l.71-7.9l7.21,6.48L30.84,114l2.88,11.52-2.92,2.21-1.22-.18-4.49,3.39c-1.752817-2.074839-3.622518-4.048041-5.6-5.91-.661281-.626249-1.288832-1.28718-1.88-1.98Z" fill="#eb8c3e" fill-rule="evenodd"/><path d="M60.51,13.51c-.826681,5.179747-2.218315,10.253344-4.15,15.13-7.549762.84501-15.170238.84501-22.72,0-1.931685-4.876656-3.323319-9.950253-4.15-15.13-8.19-.95-23.86,9.32-23.86,9.32c5,26.12,1.35,35,1.35,35L6.8,69.85c0,0,2.88,13.78,11.8,22.87c5.263894,5.292123,9.251652,11.714945,11.66,18.78h29.48c2.408348-7.065055,6.396106-13.487877,11.66-18.78c8.92-9.09,11.8-22.87,11.8-22.87L83,57.78c0,0-3.67-8.78,1.37-34.95c0,0-15.67-10.27-23.86-9.32Z" fill="#e99c45" fill-rule="evenodd"/><path d="M84.37,22.83c0,0-2.77,31.56,4.83,45.05-1,7.22-3.13,13.73-7,18.14-8.824447,6.280267-13.132866,17.160984-11,27.78l-6.66,5-4.82-7.25c2.407351-7.084809,6.40245-13.525537,11.68-18.83c8.92-9.09,11.8-22.87,11.8-22.87L83,57.78c0,0-3.67-8.78,1.37-34.95Z" fill="#eb8c3e" fill-rule="evenodd"/><path d="M82,52.69c-16.86,8.39-57.16,8.39-74,0-.113304,1.732579-.449405,3.443333-1,5.09l2,9c12.78,4.23,26.93-.27,26.93-.27l1.71-4h14.76l1.71,4c0,0,14.15,4.49,26.89.27l2-9c-.550595-1.646667-.886696-3.357421-1-5.09Z" fill="url(#ed8lGSwrqUs9-fill)" fill-rule="evenodd"/><path d="M72.39,123.05l-.71-7.9-7.21,6.48L59.16,114l-2.88,11.5l2.92,2.21l1.22-.18l4.49,3.39c1.752817-2.074839,3.622518-4.048041,5.6-5.91.660747-.619768,1.288289-1.274013,1.88-1.96Z" fill="#eb8c3e" fill-rule="evenodd"/><polygon points="59.16,113.97 45,113.97 30.84,113.97 33.72,125.5 33.47,125.69 33.72,125.84 40.19,125.84 41.92,122.85 45,122.85 48.08,122.85 49.81,125.84 56.28,125.84 56.53,125.69 56.28,125.5 59.16,113.97" fill="#e99c45" fill-rule="evenodd"/><path d="M59.28,19.54c-6.87-4.45-21.69-4.45-28.56,0c.739499,3.103456,1.715689,6.145692,2.92,9.1L45,29.36l11.36-.72c1.204311-2.954308,2.180501-5.996544,2.92-9.1Z" fill="#cb201e" fill-rule="evenodd"/></g></g></svg>
