<svg xmlns="http://www.w3.org/2000/svg" viewBox="0 0 1920 1080">
  <defs>
    <style>
      .cls-1 {
        fill: #373737;
      }

      .cls-2 {
        fill: #3b3b3b;
      }

      .cls-10,
      .cls-11,
      .cls-12,
      .cls-13,
      .cls-14,
      .cls-15,
      .cls-16,
      .cls-2,
      .cls-3,
      .cls-4,
      .cls-7,
      .cls-8,
      .cls-9 {
        fill-rule: evenodd;
      }

      .cls-3 {
        fill: #8dacd0;
      }

      .cls-4 {
        fill: #fbb8a7;
      }

      .cls-5 {
        fill: none;
        stroke: #f15a24;
        stroke-linecap: round;
        stroke-miterlimit: 10;
        stroke-width: 10px;
      }

      .cls-6 {
        fill: #ffb529;
      }

      .cls-7 {
        fill: #f96946;
      }

      .cls-8 {
        fill: #ff784d;
      }

      .cls-9 {
        fill: #ff613e;
      }

      .cls-10 {
        fill: #f9573a;
      }

      .cls-11 {
        fill: #ff4e32;
      }

      .cls-12 {
        fill: #ff3f29;
      }

      .cls-13 {
        fill: #cf3321;
      }

      .cls-14 {
        fill: #872116;
      }

      .cls-15 {
        fill: #a7291b;
      }

      .cls-16 {
        fill: #7c2016;
      }
    </style>
  </defs>
  <g id="Layer_2" data-name="Layer 2">
    <g id="Layer_1-2" data-name="Layer 1">
      <g id="bg">
        <rect class="cls-1" width="1920" height="1080" />
        <path class="cls-2" d="M1181.4,0c136.84,183,498.25,607.78,738.6,353.74V319.36S1657.51,517.8,1646.58,167.8c-2.17-69.38-17.7-124.28-41.14-167.8H1539.7c41.87,48.58,72.81,108.43,75.63,180.3,9.37,239.06-34.38,198.43-251.57-35.94C1310.42,86.8,1271.15,39.16,1242.22,0Z" />
        <path class="cls-2" d="M738.45,0C1009.74,277.76,1523.17,721.4,1920,579.5V540s-267.17,153.57-545.3-157.36C1155.77,137.87,955.34,198,1155.79,0Z" />
        <path class="cls-2" d="M0,771.28C216.6,587.61,524.47,425.26,828.6,603c556.25,325,15.63,347.85,625,477.05H1276.9c-45.31-11.62-100.62-38.2-160-94.24-151.56-143-134.37-404.69-651.56-309.37S137.19,1080,137.19,1080H0Z" />
        <path class="cls-2" d="M0,239.1C166.93,153.43,565.14,9.22,983.29,296.7,1467.28,629.44,1419,1037.07,1920,815v47.32s-341.4,282.81-678.9-217.19C1000.76,289.07,291.49,299.18,0,566.93Z" />
        <path class="cls-3" d="M226.85,577.46h0a17,17,0,0,0,20.77-12h0a17,17,0,0,0,12,20.77h0a17,17,0,0,0-20.77,12h0A17,17,0,0,0,226.85,577.46Z" />
        <path class="cls-3" d="M268.32,633.85h0a9.23,9.23,0,0,0-12.37-4h0a9.23,9.23,0,0,0,4-12.37h0a9.24,9.24,0,0,0,12.37,4h0A9.22,9.22,0,0,0,268.32,633.85Z" />
        <path class="cls-3" d="M303.59,676.42h0a9.22,9.22,0,0,0-12.36-4h0a9.21,9.21,0,0,0,4-12.36h0a9.22,9.22,0,0,0,12.37,4h0A9.23,9.23,0,0,0,303.59,676.42Z" />
        <path class="cls-3" d="M345.17,707.23h0a9.22,9.22,0,0,0-12.37-4h0a9.23,9.23,0,0,0,4-12.37h0a9.23,9.23,0,0,0,12.37,4h0A9.23,9.23,0,0,0,345.17,707.23Z" />
        <path class="cls-4" d="M1583.75,132.85h0a17,17,0,0,0,2.23,23.88h0A17,17,0,0,0,1562.1,159h0a17,17,0,0,0-2.23-23.88h0A17,17,0,0,0,1583.75,132.85Z" />
        <path class="cls-4" d="M1515.2,147h0a9.22,9.22,0,0,0,8.83-9.55h0a9.23,9.23,0,0,0,9.56,8.83h0a9.24,9.24,0,0,0-8.84,9.56h0A9.22,9.22,0,0,0,1515.2,147Z" />
        <path class="cls-4" d="M1461.78,161.26h0a9.22,9.22,0,0,0,8.84-9.55h0a9.22,9.22,0,0,0,9.55,8.83h0a9.22,9.22,0,0,0-8.83,9.55h0A9.23,9.23,0,0,0,1461.78,161.26Z" />
        <path class="cls-4" d="M1416.43,186.18h0a9.22,9.22,0,0,0,8.83-9.55h0a9.23,9.23,0,0,0,9.56,8.83h0A9.23,9.23,0,0,0,1426,195h0A9.22,9.22,0,0,0,1416.43,186.18Z" />
        <path class="cls-3" d="M1760.5,896.56h0a17,17,0,0,0-21-11.51h0A17,17,0,0,0,1751,864h0a17,17,0,0,0,21,11.51h0A17,17,0,0,0,1760.5,896.56Z" />
        <path class="cls-3" d="M1787.12,831.82h0a9.24,9.24,0,0,0,3,12.67h0a9.22,9.22,0,0,0-12.66,3h0a9.22,9.22,0,0,0-3-12.67h0A9.24,9.24,0,0,0,1787.12,831.82Z" />
        <path class="cls-3" d="M1805.16,779.56h0a9.23,9.23,0,0,0,3,12.66h0a9.22,9.22,0,0,0-12.66,3h0a9.23,9.23,0,0,0-3-12.67h0A9.24,9.24,0,0,0,1805.16,779.56Z" />
        <path class="cls-3" d="M1809.87,728h0a9.23,9.23,0,0,0,3,12.67h0a9.24,9.24,0,0,0-12.67,3h0a9.24,9.24,0,0,0-3-12.67h0A9.24,9.24,0,0,0,1809.87,728Z" />
        <path class="cls-4" d="M73,1016.93h0A17,17,0,0,0,63,995.18h0A17,17,0,0,0,84.7,985.08h0a17,17,0,0,0,10.09,21.76h0A17,17,0,0,0,73,1016.93Z" />
        <path class="cls-4" d="M132.91,980.67h0a9.23,9.23,0,0,0-5.13,12h0a9.23,9.23,0,0,0-12-5.13h0a9.23,9.23,0,0,0,5.13-12h0A9.22,9.22,0,0,0,132.91,980.67Z" />
        <path class="cls-4" d="M178.47,949.35h0a9.22,9.22,0,0,0-5.13,12h0a9.23,9.23,0,0,0-12-5.13h0a9.23,9.23,0,0,0,5.13-12h0A9.23,9.23,0,0,0,178.47,949.35Z" />
        <path class="cls-4" d="M212.88,910.69h0a9.23,9.23,0,0,0-5.13,12h0a9.23,9.23,0,0,0-12-5.13h0a9.23,9.23,0,0,0,5.12-12h0A9.22,9.22,0,0,0,212.88,910.69Z" />
        <path class="cls-4" d="M61,67.67h0A17,17,0,0,0,80.84,54.25h0A17,17,0,0,0,94.26,74.14h0A17,17,0,0,0,74.37,87.55h0A17,17,0,0,0,61,67.67Z" />
        <path class="cls-4" d="M106.25,121h0a9.22,9.22,0,0,0-12.62-3.17h0a9.23,9.23,0,0,0,3.16-12.62h0a9.22,9.22,0,0,0,12.62,3.16h0A9.23,9.23,0,0,0,106.25,121Z" />
        <path class="cls-4" d="M144.4,161.05h0a9.22,9.22,0,0,0-12.62-3.17h0a9.23,9.23,0,0,0,3.17-12.62h0a9.22,9.22,0,0,0,12.62,3.17h0A9.23,9.23,0,0,0,144.4,161.05Z" />
        <path class="cls-4" d="M188,188.9h0a9.23,9.23,0,0,0-12.62-3.17h0a9.23,9.23,0,0,0,3.16-12.62h0a9.22,9.22,0,0,0,12.62,3.16h0A9.23,9.23,0,0,0,188,188.9Z" />
        <path class="cls-3" d="M804.57,1006.58h0a17,17,0,0,0,3.8-23.68h0a17,17,0,0,0,23.68,3.79h0a17,17,0,0,0-3.79,23.69h0A17,17,0,0,0,804.57,1006.58Z" />
        <path class="cls-3" d="M874.49,1010h0a9.23,9.23,0,0,0-10.94,7h0a9.22,9.22,0,0,0-7-10.93h0A9.22,9.22,0,0,0,867.43,999h0A9.23,9.23,0,0,0,874.49,1010Z" />
        <path class="cls-3" d="M929.77,1009.46h0a9.22,9.22,0,0,0-10.93,7h0a9.22,9.22,0,0,0-7.05-10.93h0a9.23,9.23,0,0,0,10.94-7.05h0A9.23,9.23,0,0,0,929.77,1009.46Z" />
        <path class="cls-3" d="M979.91,996.63h0a9.24,9.24,0,0,0-10.94,7.06h0a9.23,9.23,0,0,0-7.05-10.93h0a9.23,9.23,0,0,0,10.93-7.06h0A9.22,9.22,0,0,0,979.91,996.63Z" />
        <path class="cls-3" d="M619,229h0a14.11,14.11,0,0,0-10.57,16.85h0a14.11,14.11,0,0,0-16.86-10.56h0a14.11,14.11,0,0,0,10.57-16.86h0A14.12,14.12,0,0,0,619,229Z" />
        <path class="cls-3" d="M566.73,203.72h0a7.66,7.66,0,0,0,10.64-1.85h0a7.65,7.65,0,0,0,1.84,10.63h0a7.66,7.66,0,0,0-10.64,1.84h0A7.65,7.65,0,0,0,566.73,203.72Z" />
        <path class="cls-3" d="M524.35,186.2h0A7.66,7.66,0,0,0,535,184.35h0A7.65,7.65,0,0,0,536.83,195h0a7.66,7.66,0,0,0-10.64,1.84h0A7.65,7.65,0,0,0,524.35,186.2Z" />
        <path class="cls-3" d="M481.91,179.75h0a7.65,7.65,0,0,0,10.63-1.84h0a7.67,7.67,0,0,0,1.85,10.64h0a7.66,7.66,0,0,0-10.64,1.84h0A7.66,7.66,0,0,0,481.91,179.75Z" />
        <path class="cls-4" d="M1012.16,567.52h0a11.2,11.2,0,0,0,13.09-8.84h0a11.21,11.21,0,0,0,8.84,13.1h0a11.21,11.21,0,0,0-13.1,8.83h0A11.2,11.2,0,0,0,1012.16,567.52Z" />
        <path class="cls-4" d="M1042,602.66h0a6.08,6.08,0,0,0-8.31-2.09h0a6.08,6.08,0,0,0,2.09-8.31h0a6.08,6.08,0,0,0,8.31,2.09h0A6.08,6.08,0,0,0,1042,602.66Z" />
        <path class="cls-4" d="M1067.1,629h0a6.07,6.07,0,0,0-8.31-2.08h0a6.08,6.08,0,0,0,2.09-8.31h0a6.08,6.08,0,0,0,8.31,2.09h0A6.08,6.08,0,0,0,1067.1,629Z" />
        <path class="cls-4" d="M1095.83,647.35h0a6.08,6.08,0,0,0-8.31-2.09h0a6.08,6.08,0,0,0,2.08-8.31h0a6.07,6.07,0,0,0,8.31,2.08h0A6.09,6.09,0,0,0,1095.83,647.35Z" />
        <path class="cls-3" d="M1600.13,996.1h0a7.2,7.2,0,0,0-2.14-9.91h0a7.18,7.18,0,0,0,9.9-2.14h0A7.2,7.2,0,0,0,1610,994h0A7.17,7.17,0,0,0,1600.13,996.1Z" />
        <path class="cls-3" d="M1628.17,986.71h0a3.89,3.89,0,0,0-3.22,4.45h0a3.9,3.9,0,0,0-4.46-3.22h0a3.91,3.91,0,0,0,3.23-4.45h0A3.89,3.89,0,0,0,1628.17,986.71Z" />
        <path class="cls-3" d="M1649.85,978h0a3.9,3.9,0,0,0-3.22,4.46h0a3.9,3.9,0,0,0-4.45-3.23h0a3.89,3.89,0,0,0,3.22-4.45h0A3.89,3.89,0,0,0,1649.85,978Z" />
        <path class="cls-3" d="M1667.62,965.29h0a3.9,3.9,0,0,0-3.22,4.46h0a3.91,3.91,0,0,0-4.46-3.23h0a3.89,3.89,0,0,0,3.23-4.45h0A3.89,3.89,0,0,0,1667.62,965.29Z" />
        <path class="cls-4" d="M1356.53,993.58h0a11.19,11.19,0,0,0,10.35-11.92h0A11.2,11.2,0,0,0,1378.81,992h0a11.2,11.2,0,0,0-10.36,11.92h0A11.2,11.2,0,0,0,1356.53,993.58Z" />
        <path class="cls-4" d="M1394.44,1019.79h0a6.08,6.08,0,0,0-8.57.14h0a6.08,6.08,0,0,0-.14-8.57h0a6.07,6.07,0,0,0,8.57-.14h0A6.08,6.08,0,0,0,1394.44,1019.79Z" />
        <path class="cls-4" d="M1425.53,1038.74h0a6.07,6.07,0,0,0-8.57.14h0a6.08,6.08,0,0,0-.14-8.56h0a6.09,6.09,0,0,0,8.57-.14h0A6.07,6.07,0,0,0,1425.53,1038.74Z" />
        <path class="cls-4" d="M1458,1049h0a6.08,6.08,0,0,0-8.57.14h0a6.07,6.07,0,0,0-.14-8.57h0a6.06,6.06,0,0,0,8.56-.14h0A6.09,6.09,0,0,0,1458,1049Z" />
        <path class="cls-4" d="M1625.71,599.19h0a11.19,11.19,0,0,1-8.77-13.13h0a11.2,11.2,0,0,1-13.14,8.76h0a11.2,11.2,0,0,1,8.77,13.13h0A11.19,11.19,0,0,1,1625.71,599.19Z" />
        <path class="cls-4" d="M1584.78,620.4h0a6.07,6.07,0,0,1,8.48,1.22h0a6.07,6.07,0,0,1,1.22-8.48h0a6.08,6.08,0,0,1-8.48-1.23h0A6.08,6.08,0,0,1,1584.78,620.4Z" />
        <path class="cls-4" d="M1551.55,635.26h0a6.07,6.07,0,0,1,8.48,1.22h0a6.09,6.09,0,0,1,1.22-8.48h0a6.09,6.09,0,0,1-8.48-1.22h0A6.07,6.07,0,0,1,1551.55,635.26Z" />
        <path class="cls-4" d="M1518,641.33h0a6.09,6.09,0,0,1,8.48,1.22h0a6.07,6.07,0,0,1,1.22-8.48h0a6.07,6.07,0,0,1-8.48-1.22h0A6.08,6.08,0,0,1,1518,641.33Z" />
        <g id="road">
          <path class="cls-5" d="M350,324.27H1500c90.92-7.26,168.37,64.38,170,150,1.67,87.73-76.78,163.32-170,156H404v386" />
        </g>
        <circle id="station7" class="cls-6" cx="404" cy="1020" r="20" />
        <circle id="station6" class="cls-6" cx="700" cy="630" r="20" />
        <circle id="station5" class="cls-6" cx="1050" cy="630" r="20" />
        <circle id="station4" class="cls-6" cx="1400" cy="630" r="20" />
        <circle id="station3" class="cls-6" cx="1400" cy="325" r="20" />
        <circle id="station2" class="cls-6" cx="1050" cy="325" r="20" />
        <circle id="station1" class="cls-6" cx="700" cy="325" r="20" />
      </g>
      <g id="meteor" >
        <animateMotion
        fill="freeze"
        dur="5s"
        repeatCount="1"
        path="M5,0H350c90.92-7.26" />

        <polygon class="cls-7" points="339.84 283.99 329.55 292.79 332.47 297.32 345.64 290.93 345.95 285.4 339.84 283.99" />
        <polygon class="cls-8" points="332.47 297.32 329.55 292.79 322.56 294.89 315.91 302.24 314.27 306.97 332.47 297.32" />
        <polygon class="cls-9" points="332.47 297.32 314.27 306.97 318.48 317.69 332.47 297.32" />
        <polygon class="cls-8" points="324.16 327.21 332.47 297.32 318.48 317.69 324.16 327.21" />
        <polygon class="cls-9" points="343.5 299.1 345.64 290.93 332.47 297.32 343.5 299.1" />
        <polygon class="cls-10" points="351.08 313.46 325.88 321.02 343.5 299.1 351.08 313.46" />
        <polygon class="cls-7" points="336.5 334.16 325.88 321.02 336.75 317.76 336.5 334.16" />
        <polygon class="cls-10" points="349.28 329.05 336.75 317.76 351.08 313.46 349.28 329.05" />
        <polygon class="cls-11" points="349.28 329.05 336.75 317.76 336.5 334.16 342.04 348.6 349.28 329.05" />
        <polygon class="cls-12" points="349.28 329.05 357.78 338.35 342.04 348.6 349.28 329.05" />
        <polygon class="cls-11" points="355.81 350.16 357.78 338.35 342.04 348.6 344.32 357 355.81 350.16" />
        <polygon class="cls-13" points="351.23 360.94 340.87 364.55 344.32 357 351.23 360.94" />
        <polygon class="cls-14" points="351.23 360.94 360.31 363.19 355.81 350.16 344.32 357 351.23 360.94" />
        <polygon class="cls-15" points="358.06 356.68 355.81 350.16 371.84 346.06 358.06 356.68" />
        <polygon class="cls-16" points="376.27 354.67 358.06 356.68 371.84 346.06 376.27 354.67" />
        <polygon class="cls-14" points="376.27 354.67 380.02 337.24 371.84 346.06 376.27 354.67" />
        <polygon class="cls-13" points="369.59 332.15 380.02 337.24 371.84 346.06 369.59 332.15" />
        <polygon class="cls-15" points="369.59 332.15 357.78 338.35 371.84 346.06 369.59 332.15" />
        <polygon class="cls-12" points="355.81 350.16 357.78 338.35 371.84 346.06 355.81 350.16" />
        <polygon class="cls-15" points="369.59 332.15 381.5 326.75 380.02 337.24 369.59 332.15" />
        <polygon class="cls-12" points="369.59 332.15 381.5 326.75 374.05 309.45 369.59 332.15" />
        <polygon class="cls-15" points="384.8 318.18 381.5 326.75 374.05 309.45 384.8 318.18" />
        <polygon class="cls-14" points="384.8 318.18 381.5 326.75 380.02 337.24 390 332.43 384.8 318.18" />
        <polygon class="cls-14" points="384.8 318.18 374.05 309.45 382.79 307.05 384.8 318.18" />
        <polygon class="cls-13" points="371.74 295.66 374.05 309.45 382.79 307.05 371.74 295.66" />
        <polygon class="cls-12" points="371.74 295.66 374.05 309.45 362.14 310.28 371.74 295.66" />
        <polygon class="cls-15" points="369.59 332.15 374.05 309.45 362.14 310.28 369.59 332.15" />
        <polygon class="cls-13" points="369.59 332.15 357.78 338.35 363.66 328.06 362.14 310.28 369.59 332.15" />
        <polygon class="cls-11" points="351.08 313.46 349.28 329.05 357.78 338.35 363.66 328.06 351.08 313.46" />
        <polygon class="cls-12" points="351.08 313.46 362.14 310.28 363.66 328.06 351.08 313.46" />
        <polygon class="cls-13" points="371.74 295.66 357.63 294.48 362.14 310.28 371.74 295.66" />
        <polygon class="cls-12" points="371.74 295.66 357.63 294.48 354.39 286.45 371.74 295.66" />
        <polygon class="cls-12" points="345.95 285.4 357.63 294.48 343.5 299.1 345.64 290.93 345.95 285.4" />
        <polygon class="cls-11" points="345.95 285.4 357.63 294.48 354.39 286.45 345.95 285.4" />
        <polygon class="cls-12" points="351.08 313.46 357.63 294.48 343.5 299.1 351.08 313.46" />
        <polygon class="cls-10" points="351.08 313.46 357.63 294.48 362.14 310.28 351.08 313.46" />
        <polygon class="cls-13" points="342.04 348.6 331.64 346.62 344.32 357 342.04 348.6" />
        <polygon class="cls-14" points="340.87 364.55 331.64 346.62 344.32 357 340.87 364.55" />
        <polygon class="cls-16" points="340.87 364.55 331.64 346.62 330.08 356.8 340.87 364.55" />
        <polygon class="cls-12" points="322.77 350.01 331.64 346.62 330.08 356.8 322.77 350.01" />
        <polygon class="cls-8" points="322.77 350.01 331.64 346.62 315.57 337.18 322.77 350.01" />
        <polygon class="cls-9" points="336.5 334.16 331.64 346.62 315.57 337.18 336.5 334.16" />
        <polygon class="cls-12" points="336.5 334.16 331.64 346.62 342.04 348.6 336.5 334.16" />
        <polygon class="cls-12" points="336.5 334.16 324.16 327.21 315.57 337.18 336.5 334.16" />
        <polygon class="cls-10" points="336.5 334.16 324.16 327.21 325.88 321.02 336.5 334.16" />
        <polygon class="cls-7" points="315.57 337.18 324.16 327.21 318.48 317.69 315.57 337.18" />
        <polygon class="cls-9" points="315.57 337.18 310 327.92 318.48 317.69 315.57 337.18" />
        <polygon class="cls-8" points="314.27 306.97 310 327.92 318.48 317.69 314.27 306.97" />
        <polygon class="cls-12" points="343.5 299.1 325.88 321.02 332.47 297.32 343.5 299.1" />
        <polygon class="cls-16" points="344.32 357 351.23 360.94 360.3 363.16 358.06 356.68 344.32 357" />
        <polygon class="cls-7" points="339.84 283.99 329.55 292.79 332.47 297.32 345.64 290.93 345.95 285.4 339.84 283.99" />
        <polygon class="cls-8" points="332.47 297.32 329.55 292.79 322.56 294.89 315.91 302.24 314.27 306.97 332.47 297.32" />
        <polygon class="cls-9" points="332.47 297.32 314.27 306.97 318.48 317.69 332.47 297.32" />
        <polygon class="cls-8" points="324.16 327.21 332.47 297.32 318.48 317.69 324.16 327.21" />
        <polygon class="cls-9" points="343.5 299.1 345.64 290.93 332.47 297.32 343.5 299.1" />
        <polygon class="cls-10" points="351.08 313.46 325.88 321.02 343.5 299.1 351.08 313.46" />
        <polygon class="cls-7" points="336.5 334.16 325.88 321.02 336.75 317.76 336.5 334.16" />
        <polygon class="cls-10" points="349.28 329.05 336.75 317.76 351.08 313.46 349.28 329.05" />
        <polygon class="cls-11" points="349.28 329.05 336.75 317.76 336.5 334.16 342.04 348.6 349.28 329.05" />
        <polygon class="cls-12" points="349.28 329.05 357.78 338.35 342.04 348.6 349.28 329.05" />
        <polygon class="cls-11" points="355.81 350.16 357.78 338.35 342.04 348.6 344.32 357 355.81 350.16" />
        <polygon class="cls-13" points="351.23 360.94 340.87 364.55 344.32 357 351.23 360.94" />
        <polygon class="cls-14" points="351.23 360.94 360.31 363.19 355.81 350.16 344.32 357 351.23 360.94" />
        <polygon class="cls-15" points="358.06 356.68 355.81 350.16 371.84 346.06 358.06 356.68" />
        <polygon class="cls-16" points="376.27 354.67 358.06 356.68 371.84 346.06 376.27 354.67" />
        <polygon class="cls-14" points="376.27 354.67 380.02 337.24 371.84 346.06 376.27 354.67" />
        <polygon class="cls-13" points="369.59 332.15 380.02 337.24 371.84 346.06 369.59 332.15" />
        <polygon class="cls-15" points="369.59 332.15 357.78 338.35 371.84 346.06 369.59 332.15" />
        <polygon class="cls-12" points="355.81 350.16 357.78 338.35 371.84 346.06 355.81 350.16" />
        <polygon class="cls-15" points="369.59 332.15 381.5 326.75 380.02 337.24 369.59 332.15" />
        <polygon class="cls-12" points="369.59 332.15 381.5 326.75 374.05 309.45 369.59 332.15" />
        <polygon class="cls-15" points="384.8 318.18 381.5 326.75 374.05 309.45 384.8 318.18" />
        <polygon class="cls-14" points="384.8 318.18 381.5 326.75 380.02 337.24 390 332.43 384.8 318.18" />
        <polygon class="cls-14" points="384.8 318.18 374.05 309.45 382.79 307.05 384.8 318.18" />
        <polygon class="cls-13" points="371.74 295.66 374.05 309.45 382.79 307.05 371.74 295.66" />
        <polygon class="cls-12" points="371.74 295.66 374.05 309.45 362.14 310.28 371.74 295.66" />
        <polygon class="cls-15" points="369.59 332.15 374.05 309.45 362.14 310.28 369.59 332.15" />
        <polygon class="cls-13" points="369.59 332.15 357.78 338.35 363.66 328.06 362.14 310.28 369.59 332.15" />
        <polygon class="cls-11" points="351.08 313.46 349.28 329.05 357.78 338.35 363.66 328.06 351.08 313.46" />
        <polygon class="cls-12" points="351.08 313.46 362.14 310.28 363.66 328.06 351.08 313.46" />
        <polygon class="cls-13" points="371.74 295.66 357.63 294.48 362.14 310.28 371.74 295.66" />
        <polygon class="cls-12" points="371.74 295.66 357.63 294.48 354.39 286.45 371.74 295.66" />
        <polygon class="cls-12" points="345.95 285.4 357.63 294.48 343.5 299.1 345.64 290.93 345.95 285.4" />
        <polygon class="cls-11" points="345.95 285.4 357.63 294.48 354.39 286.45 345.95 285.4" />
        <polygon class="cls-12" points="351.08 313.46 357.63 294.48 343.5 299.1 351.08 313.46" />
        <polygon class="cls-10" points="351.08 313.46 357.63 294.48 362.14 310.28 351.08 313.46" />
        <polygon class="cls-13" points="342.04 348.6 331.64 346.62 344.32 357 342.04 348.6" />
        <polygon class="cls-14" points="340.87 364.55 331.64 346.62 344.32 357 340.87 364.55" />
        <polygon class="cls-16" points="340.87 364.55 331.64 346.62 330.08 356.8 340.87 364.55" />
        <polygon class="cls-12" points="322.77 350.01 331.64 346.62 330.08 356.8 322.77 350.01" />
        <polygon class="cls-8" points="322.77 350.01 331.64 346.62 315.57 337.18 322.77 350.01" />
        <polygon class="cls-9" points="336.5 334.16 331.64 346.62 315.57 337.18 336.5 334.16" />
        <polygon class="cls-12" points="336.5 334.16 331.64 346.62 342.04 348.6 336.5 334.16" />
        <polygon class="cls-12" points="336.5 334.16 324.16 327.21 315.57 337.18 336.5 334.16" />
        <polygon class="cls-10" points="336.5 334.16 324.16 327.21 325.88 321.02 336.5 334.16" />
        <polygon class="cls-7" points="315.57 337.18 324.16 327.21 318.48 317.69 315.57 337.18" />
        <polygon class="cls-9" points="315.57 337.18 310 327.92 318.48 317.69 315.57 337.18" />
        <polygon class="cls-8" points="314.27 306.97 310 327.92 318.48 317.69 314.27 306.97" />
        <polygon class="cls-12" points="343.5 299.1 325.88 321.02 332.47 297.32 343.5 299.1" />
        <polygon class="cls-16" points="344.32 357 351.23 360.94 360.3 363.16 358.06 356.68 344.32 357" />
      </g>
    </g>
  </g>
</svg>